<?xml version="1.0" encoding="UTF-8" standalone="no"?>
<!-- Created with Inkscape (http://www.inkscape.org/) -->

<svg
   width="210mm"
   height="297mm"
   viewBox="0 0 210 297"
   version="1.1"
   id="svg5"
   inkscape:version="1.2.1 (9c6d41e, 2022-07-14)"
   sodipodi:docname="rysunek.svg"
   xmlns:inkscape="http://www.inkscape.org/namespaces/inkscape"
   xmlns:sodipodi="http://sodipodi.sourceforge.net/DTD/sodipodi-0.dtd"
   xmlns="http://www.w3.org/2000/svg"
   xmlns:svg="http://www.w3.org/2000/svg">
  <sodipodi:namedview
     id="namedview7"
     pagecolor="#505050"
     bordercolor="#ffffff"
     borderopacity="1"
     inkscape:showpageshadow="0"
     inkscape:pageopacity="0"
     inkscape:pagecheckerboard="1"
     inkscape:deskcolor="#505050"
     inkscape:document-units="mm"
     showgrid="false"
     inkscape:zoom="0.72960859"
     inkscape:cx="444.07372"
     inkscape:cy="646.23691"
     inkscape:window-width="1920"
     inkscape:window-height="1025"
     inkscape:window-x="0"
     inkscape:window-y="0"
     inkscape:window-maximized="1"
     inkscape:current-layer="layer1" />
  <defs
     id="defs2" />
  <g
     inkscape:label="Warstwa 1"
     inkscape:groupmode="layer"
     id="layer1">
    <rect
       style="fill:#ffb380;stroke:#000000;stroke-width:7.17962;stroke-dasharray:none"
       id="rect7566"
       width="187.34143"
       height="69.428253"
       x="11.329285"
       y="188.47577" />
    <rect
       style="fill:#ffb380;stroke:#000000;stroke-width:7.17962;stroke-dasharray:none"
       id="rect7568"
       width="133.46494"
       height="40.392738"
       x="38.135849"
       y="148.08302" />
    <path
       style="fill:#552200;stroke:none;stroke-width:7.17962;stroke-dasharray:none"
       id="path9078"
       sodipodi:type="arc"
       sodipodi:cx="22.598255"
       sodipodi:cy="195.50232"
       sodipodi:rx="11.268972"
       sodipodi:ry="7.026504"
       sodipodi:start="0"
       sodipodi:end="6.2830422"
       sodipodi:arc-type="slice"
       d="m 33.867228,195.50232 a 11.268972,7.026504 0 0 1 -11.26857,7.0265 11.268972,7.026504 0 0 1 -11.269375,-7.026 11.268972,7.026504 0 0 1 11.267763,-7.027 11.268972,7.026504 0 0 1 11.270181,7.02549 l -11.268972,0.001 z" />
    <path
       style="fill:#552200;stroke:none;stroke-width:7.17962;stroke-dasharray:none"
       id="path9078-6"
       sodipodi:type="arc"
       sodipodi:cx="43.924835"
       sodipodi:cy="195.50232"
       sodipodi:rx="11.268972"
       sodipodi:ry="7.026504"
       sodipodi:start="0"
       sodipodi:end="6.2830422"
       sodipodi:arc-type="slice"
       d="m 55.193808,195.50232 a 11.268972,7.026504 0 0 1 -11.26857,7.0265 11.268972,7.026504 0 0 1 -11.269375,-7.026 11.268972,7.026504 0 0 1 11.267763,-7.027 11.268972,7.026504 0 0 1 11.270181,7.02549 l -11.268972,0.001 z" />
    <path
       style="fill:#552200;stroke:none;stroke-width:7.17962;stroke-dasharray:none"
       id="path9078-6-7"
       sodipodi:type="arc"
       sodipodi:cx="66.462784"
       sodipodi:cy="195.50232"
       sodipodi:rx="11.268972"
       sodipodi:ry="7.026504"
       sodipodi:start="0"
       sodipodi:end="6.2830422"
       sodipodi:arc-type="slice"
       d="m 77.731756,195.50232 a 11.268972,7.026504 0 0 1 -11.268569,7.0265 11.268972,7.026504 0 0 1 -11.269376,-7.026 11.268972,7.026504 0 0 1 11.267763,-7.027 11.268972,7.026504 0 0 1 11.270182,7.02549 l -11.268972,0.001 z" />
    <path
       style="fill:#552200;stroke:none;stroke-width:7.17962;stroke-dasharray:none"
       id="path9078-6-7-5"
       sodipodi:type="arc"
       sodipodi:cx="89.000725"
       sodipodi:cy="195.50232"
       sodipodi:rx="11.268972"
       sodipodi:ry="7.026504"
       sodipodi:start="0"
       sodipodi:end="6.2830422"
       sodipodi:arc-type="slice"
       d="m 100.2697,195.50232 a 11.268972,7.026504 0 0 1 -11.268572,7.0265 11.268972,7.026504 0 0 1 -11.269376,-7.026 11.268972,7.026504 0 0 1 11.267763,-7.027 11.268972,7.026504 0 0 1 11.270185,7.02549 l -11.268975,0.001 z" />
    <path
       style="fill:#552200;stroke:none;stroke-width:7.17962;stroke-dasharray:none"
       id="path9078-6-7-5-3"
       sodipodi:type="arc"
       sodipodi:cx="110.3273"
       sodipodi:cy="195.50232"
       sodipodi:rx="11.268972"
       sodipodi:ry="7.026504"
       sodipodi:start="0"
       sodipodi:end="6.2830422"
       sodipodi:arc-type="slice"
       d="m 121.59627,195.50232 a 11.268972,7.026504 0 0 1 -11.26857,7.0265 11.268972,7.026504 0 0 1 -11.269371,-7.026 11.268972,7.026504 0 0 1 11.267761,-7.027 11.268972,7.026504 0 0 1 11.27018,7.02549 l -11.26897,0.001 z" />
    <path
       style="fill:#552200;stroke:none;stroke-width:7.17962;stroke-dasharray:none"
       id="path9078-6-7-5-3-5"
       sodipodi:type="arc"
       sodipodi:cx="128.57097"
       sodipodi:cy="195.50232"
       sodipodi:rx="11.268972"
       sodipodi:ry="7.026504"
       sodipodi:start="0"
       sodipodi:end="6.2830422"
       sodipodi:arc-type="slice"
       d="m 139.83994,195.50232 a 11.268972,7.026504 0 0 1 -11.26857,7.0265 11.268972,7.026504 0 0 1 -11.26937,-7.026 11.268972,7.026504 0 0 1 11.26776,-7.027 11.268972,7.026504 0 0 1 11.27018,7.02549 l -11.26897,0.001 z" />
    <path
       style="fill:#552200;stroke:none;stroke-width:7.17962;stroke-dasharray:none"
       id="path9078-6-7-5-3-5-6"
       sodipodi:type="arc"
       sodipodi:cx="151.1089"
       sodipodi:cy="195.50232"
       sodipodi:rx="11.268972"
       sodipodi:ry="7.026504"
       sodipodi:start="0"
       sodipodi:end="6.2830422"
       sodipodi:arc-type="slice"
       d="m 162.37787,195.50232 a 11.268972,7.026504 0 0 1 -11.26856,7.0265 11.268972,7.026504 0 0 1 -11.26938,-7.026 11.268972,7.026504 0 0 1 11.26776,-7.027 11.268972,7.026504 0 0 1 11.27018,7.02549 l -11.26897,0.001 z" />
    <path
       style="fill:#552200;stroke:none;stroke-width:7.17962;stroke-dasharray:none"
       id="path9078-6-7-5-3-5-6-2"
       sodipodi:type="arc"
       sodipodi:cx="171.62901"
       sodipodi:cy="195.50232"
       sodipodi:rx="11.268972"
       sodipodi:ry="7.026504"
       sodipodi:start="0"
       sodipodi:end="6.2830422"
       sodipodi:arc-type="slice"
       d="m 182.89799,195.50232 a 11.268972,7.026504 0 0 1 -11.26857,7.0265 11.268972,7.026504 0 0 1 -11.26938,-7.026 11.268972,7.026504 0 0 1 11.26776,-7.027 11.268972,7.026504 0 0 1 11.27019,7.02549 l -11.26898,0.001 z" />
    <path
       style="fill:#552200;stroke:none;stroke-width:7.17962;stroke-dasharray:none"
       id="path9078-6-7-5-3-5-6-2-9"
       sodipodi:type="arc"
       sodipodi:cx="190.67915"
       sodipodi:cy="195.50232"
       sodipodi:rx="11.268972"
       sodipodi:ry="7.026504"
       sodipodi:start="0"
       sodipodi:end="6.2830422"
       sodipodi:arc-type="slice"
       d="m 201.94813,195.50232 a 11.268972,7.026504 0 0 1 -11.26857,7.0265 11.268972,7.026504 0 0 1 -11.26938,-7.026 11.268972,7.026504 0 0 1 11.26776,-7.027 11.268972,7.026504 0 0 1 11.27019,7.02549 l -11.26898,0.001 z" />
    <path
       style="fill:#552200;stroke:none;stroke-width:7.17962;stroke-dasharray:none"
       id="path9078-6-7-5-3-5-6-2-9-1"
       sodipodi:type="arc"
       sodipodi:cx="179.41019"
       sodipodi:cy="202.52885"
       sodipodi:rx="11.268972"
       sodipodi:ry="7.026504"
       sodipodi:start="0"
       sodipodi:end="6.2830422"
       sodipodi:arc-type="slice"
       d="m 190.67916,202.52885 a 11.268972,7.026504 0 0 1 -11.26857,7.02651 11.268972,7.026504 0 0 1 -11.26938,-7.026 11.268972,7.026504 0 0 1 11.26777,-7.02701 11.268972,7.026504 0 0 1 11.27018,7.0255 l -11.26897,0.001 z" />
    <path
       style="fill:#552200;stroke:none;stroke-width:7.17962;stroke-dasharray:none"
       id="path9078-6-7-5-3-5-6-2-9-1-2"
       sodipodi:type="arc"
       sodipodi:cx="160.36003"
       sodipodi:cy="202.52885"
       sodipodi:rx="11.268972"
       sodipodi:ry="7.026504"
       sodipodi:start="0"
       sodipodi:end="6.2830422"
       sodipodi:arc-type="slice"
       d="m 171.629,202.52885 a 11.268972,7.026504 0 0 1 -11.26857,7.02651 11.268972,7.026504 0 0 1 -11.26937,-7.026 11.268972,7.026504 0 0 1 11.26776,-7.02701 11.268972,7.026504 0 0 1 11.27018,7.0255 l -11.26897,0.001 z" />
    <path
       style="fill:#552200;stroke:none;stroke-width:7.17962;stroke-dasharray:none"
       id="path9078-6-7-5-3-5-6-2-9-1-2-7"
       sodipodi:type="arc"
       sodipodi:cx="139.83995"
       sodipodi:cy="202.52885"
       sodipodi:rx="11.268972"
       sodipodi:ry="7.026504"
       sodipodi:start="0"
       sodipodi:end="6.2830422"
       sodipodi:arc-type="slice"
       d="m 151.10892,202.52885 a 11.268972,7.026504 0 0 1 -11.26857,7.02651 11.268972,7.026504 0 0 1 -11.26937,-7.026 11.268972,7.026504 0 0 1 11.26776,-7.02701 11.268972,7.026504 0 0 1 11.27018,7.0255 l -11.26897,0.001 z" />
    <path
       style="fill:#552200;stroke:none;stroke-width:7.17962;stroke-dasharray:none"
       id="path9078-6-7-5-3-5-6-2-9-1-2-7-0"
       sodipodi:type="arc"
       sodipodi:cx="120.05482"
       sodipodi:cy="202.52885"
       sodipodi:rx="11.268972"
       sodipodi:ry="7.026504"
       sodipodi:start="0"
       sodipodi:end="6.2830422"
       sodipodi:arc-type="slice"
       d="m 131.32379,202.52885 a 11.268972,7.026504 0 0 1 -11.26857,7.02651 11.268972,7.026504 0 0 1 -11.26938,-7.026 11.268972,7.026504 0 0 1 11.26777,-7.02701 11.268972,7.026504 0 0 1 11.27018,7.0255 l -11.26897,0.001 z" />
    <path
       style="fill:#552200;stroke:none;stroke-width:7.17962;stroke-dasharray:none"
       id="path9078-6-7-5-3-5-6-2-9-1-2-7-0-9"
       sodipodi:type="arc"
       sodipodi:cx="99.058334"
       sodipodi:cy="202.52885"
       sodipodi:rx="11.268972"
       sodipodi:ry="7.026504"
       sodipodi:start="0"
       sodipodi:end="6.2830422"
       sodipodi:arc-type="slice"
       d="m 110.32731,202.52885 a 11.268972,7.026504 0 0 1 -11.268572,7.02651 11.268972,7.026504 0 0 1 -11.269376,-7.026 11.268972,7.026504 0 0 1 11.267763,-7.02701 11.268972,7.026504 0 0 1 11.270185,7.0255 l -11.268976,0.001 z" />
    <path
       style="fill:#552200;stroke:none;stroke-width:7.17962;stroke-dasharray:none"
       id="path9078-6-7-5-3-5-6-2-9-1-2-7-0-9-3"
       sodipodi:type="arc"
       sodipodi:cx="77.731758"
       sodipodi:cy="202.52885"
       sodipodi:rx="11.268972"
       sodipodi:ry="7.026504"
       sodipodi:start="0"
       sodipodi:end="6.2830422"
       sodipodi:arc-type="slice"
       d="m 89.000731,202.52885 a 11.268972,7.026504 0 0 1 -11.26857,7.02651 11.268972,7.026504 0 0 1 -11.269375,-7.026 11.268972,7.026504 0 0 1 11.267763,-7.02701 11.268972,7.026504 0 0 1 11.270181,7.0255 l -11.268972,0.001 z" />
    <path
       style="fill:#552200;stroke:none;stroke-width:7.17962;stroke-dasharray:none"
       id="path9078-6-7-5-3-5-6-2-9-1-2-7-0-9-3-6"
       sodipodi:type="arc"
       sodipodi:cx="55.799492"
       sodipodi:cy="202.52885"
       sodipodi:rx="11.268972"
       sodipodi:ry="7.026504"
       sodipodi:start="0"
       sodipodi:end="6.2830422"
       sodipodi:arc-type="slice"
       d="m 67.068464,202.52885 a 11.268972,7.026504 0 0 1 -11.268569,7.02651 11.268972,7.026504 0 0 1 -11.269375,-7.026 11.268972,7.026504 0 0 1 11.267762,-7.02701 11.268972,7.026504 0 0 1 11.270182,7.0255 l -11.268972,0.001 z" />
    <path
       style="fill:#552200;stroke:none;stroke-width:7.17962;stroke-dasharray:none"
       id="path9078-6-7-5-3-5-6-2-9-1-2-7-0-9-3-6-0"
       sodipodi:type="arc"
       sodipodi:cx="33.867229"
       sodipodi:cy="203.7319"
       sodipodi:rx="11.268972"
       sodipodi:ry="7.026504"
       sodipodi:start="0"
       sodipodi:end="6.2830422"
       sodipodi:arc-type="slice"
       d="m 45.136202,203.7319 a 11.268972,7.026504 0 0 1 -11.268569,7.02651 11.268972,7.026504 0 0 1 -11.269376,-7.026 11.268972,7.026504 0 0 1 11.267763,-7.02701 11.268972,7.026504 0 0 1 11.270182,7.0255 l -11.268973,0.001 z" />
    <path
       style="fill:#552200;stroke:none;stroke-width:7.17962;stroke-dasharray:none"
       id="path9078-6-7-5-3-5-6-2-9-1-2-7-0-9-3-6-0-6"
       sodipodi:type="arc"
       sodipodi:cx="33.867229"
       sodipodi:cy="196.70537"
       sodipodi:rx="11.268972"
       sodipodi:ry="7.026504"
       sodipodi:start="0"
       sodipodi:end="6.2830422"
       sodipodi:arc-type="slice"
       d="m 45.136202,196.70537 a 11.268972,7.026504 0 0 1 -11.268569,7.0265 11.268972,7.026504 0 0 1 -11.269376,-7.026 11.268972,7.026504 0 0 1 11.267763,-7.02701 11.268972,7.026504 0 0 1 11.270182,7.0255 l -11.268973,0.001 z" />
    <path
       style="fill:#552200;stroke:none;stroke-width:7.17962;stroke-dasharray:none"
       id="path9078-6-7-5-3-5-6-2-9-1-2-7-0-9-3-6-0-6-2"
       sodipodi:type="arc"
       sodipodi:cx="55.193813"
       sodipodi:cy="195.5013"
       sodipodi:rx="11.268972"
       sodipodi:ry="7.026504"
       sodipodi:start="0"
       sodipodi:end="6.2830422"
       sodipodi:arc-type="slice"
       d="m 66.462786,195.5013 a 11.268972,7.026504 0 0 1 -11.26857,7.0265 11.268972,7.026504 0 0 1 -11.269375,-7.026 11.268972,7.026504 0 0 1 11.267763,-7.02701 11.268972,7.026504 0 0 1 11.270182,7.0255 l -11.268973,0.001 z" />
    <path
       style="fill:#552200;stroke:none;stroke-width:7.17962;stroke-dasharray:none"
       id="path9078-6-7-5-3-5-6-2-9-1-2-7-0-9-3-6-0-6-2-6"
       sodipodi:type="arc"
       sodipodi:cx="71.491585"
       sodipodi:cy="195.50232"
       sodipodi:rx="11.268972"
       sodipodi:ry="7.026504"
       sodipodi:start="0"
       sodipodi:end="6.2830422"
       sodipodi:arc-type="slice"
       d="m 82.760557,195.50232 a 11.268972,7.026504 0 0 1 -11.268569,7.0265 11.268972,7.026504 0 0 1 -11.269376,-7.026 11.268972,7.026504 0 0 1 11.267763,-7.027 11.268972,7.026504 0 0 1 11.270182,7.02549 l -11.268972,0.001 z" />
    <path
       style="fill:#552200;stroke:none;stroke-width:7.17962;stroke-dasharray:none"
       id="path9078-6-7-5-3-5-6-2-9-1-2-7-0-9-3-6-0-6-2-6-1"
       sodipodi:type="arc"
       sodipodi:cx="99.058334"
       sodipodi:cy="195.50232"
       sodipodi:rx="11.268972"
       sodipodi:ry="7.026504"
       sodipodi:start="0"
       sodipodi:end="6.2830422"
       sodipodi:arc-type="slice"
       d="m 110.32731,195.50232 a 11.268972,7.026504 0 0 1 -11.268572,7.0265 11.268972,7.026504 0 0 1 -11.269376,-7.026 11.268972,7.026504 0 0 1 11.267763,-7.027 11.268972,7.026504 0 0 1 11.270185,7.02549 l -11.268976,0.001 z" />
    <path
       style="fill:#552200;stroke:none;stroke-width:7.17962;stroke-dasharray:none"
       id="path9078-6-7-5-3-5-6-2-9-1-2-7-0-9-3-6-0-6-2-6-1-8"
       sodipodi:type="arc"
       sodipodi:cx="134.07661"
       sodipodi:cy="195.50232"
       sodipodi:rx="11.268972"
       sodipodi:ry="7.026504"
       sodipodi:start="0"
       sodipodi:end="6.2830422"
       sodipodi:arc-type="slice"
       d="m 145.34559,195.50232 a 11.268972,7.026504 0 0 1 -11.26857,7.0265 11.268972,7.026504 0 0 1 -11.26938,-7.026 11.268972,7.026504 0 0 1 11.26776,-7.027 11.268972,7.026504 0 0 1 11.27019,7.02549 l -11.26898,0.001 z" />
    <path
       style="fill:#552200;stroke:none;stroke-width:7.17962;stroke-dasharray:none"
       id="path9078-6-7-5-3-5-6-2-9-1-2-7-0-9-3-6-0-6-2-6-1-8-7"
       sodipodi:type="arc"
       sodipodi:cx="160.36003"
       sodipodi:cy="195.50232"
       sodipodi:rx="11.268972"
       sodipodi:ry="7.026504"
       sodipodi:start="0"
       sodipodi:end="6.2830422"
       sodipodi:arc-type="slice"
       d="m 171.629,195.50232 a 11.268972,7.026504 0 0 1 -11.26857,7.0265 11.268972,7.026504 0 0 1 -11.26937,-7.026 11.268972,7.026504 0 0 1 11.26776,-7.027 11.268972,7.026504 0 0 1 11.27018,7.02549 l -11.26897,0.001 z" />
    <path
       style="fill:#552200;stroke:none;stroke-width:7.17962;stroke-dasharray:none"
       id="path9078-6-7-5-3-5-6-2-9-1-2-7-0-9-3-6-0-6-2-6-1-8-9"
       sodipodi:type="arc"
       sodipodi:cx="49.404827"
       sodipodi:cy="156.16537"
       sodipodi:rx="11.268972"
       sodipodi:ry="7.026504"
       sodipodi:start="0"
       sodipodi:end="6.2830422"
       sodipodi:arc-type="slice"
       d="m 60.6738,156.16537 a 11.268972,7.026504 0 0 1 -11.26857,7.02651 11.268972,7.026504 0 0 1 -11.269375,-7.026 11.268972,7.026504 0 0 1 11.267763,-7.02701 11.268972,7.026504 0 0 1 11.270181,7.0255 l -11.268972,0.001 z" />
    <path
       style="fill:#552200;stroke:none;stroke-width:7.17962;stroke-dasharray:none"
       id="path9078-6-7-5-3-5-6-2-9-1-2-7-0-9-3-6-0-6-2-6-1-8-9-2"
       sodipodi:type="arc"
       sodipodi:cx="60.673798"
       sodipodi:cy="163.19191"
       sodipodi:rx="11.268972"
       sodipodi:ry="7.026504"
       sodipodi:start="0"
       sodipodi:end="6.2830422"
       sodipodi:arc-type="slice"
       d="m 71.94277,163.19191 a 11.268972,7.026504 0 0 1 -11.268569,7.0265 11.268972,7.026504 0 0 1 -11.269376,-7.026 11.268972,7.026504 0 0 1 11.267763,-7.027 11.268972,7.026504 0 0 1 11.270182,7.02549 l -11.268972,0.001 z" />
    <path
       style="fill:#552200;stroke:none;stroke-width:7.17962;stroke-dasharray:none"
       id="path9078-6-7-5-3-5-6-2-9-1-2-7-0-9-3-6-0-6-2-6-1-8-9-2-0"
       sodipodi:type="arc"
       sodipodi:cx="71.942764"
       sodipodi:cy="156.16537"
       sodipodi:rx="11.268972"
       sodipodi:ry="7.026504"
       sodipodi:start="0"
       sodipodi:end="6.2830422"
       sodipodi:arc-type="slice"
       d="m 83.211737,156.16537 a 11.268972,7.026504 0 0 1 -11.26857,7.02651 11.268972,7.026504 0 0 1 -11.269375,-7.026 11.268972,7.026504 0 0 1 11.267763,-7.02701 11.268972,7.026504 0 0 1 11.270182,7.0255 l -11.268973,0.001 z" />
    <path
       style="fill:#552200;stroke:none;stroke-width:7.17962;stroke-dasharray:none"
       id="path9078-6-7-5-3-5-6-2-9-1-2-7-0-9-3-6-0-6-2-6-1-8-9-2-0-2"
       sodipodi:type="arc"
       sodipodi:cx="83.211746"
       sodipodi:cy="163.19191"
       sodipodi:rx="11.268972"
       sodipodi:ry="7.026504"
       sodipodi:start="0"
       sodipodi:end="6.2830422"
       sodipodi:arc-type="slice"
       d="m 94.480719,163.19191 a 11.268972,7.026504 0 0 1 -11.26857,7.0265 11.268972,7.026504 0 0 1 -11.269375,-7.026 11.268972,7.026504 0 0 1 11.267763,-7.027 11.268972,7.026504 0 0 1 11.270181,7.02549 l -11.268972,0.001 z" />
    <path
       style="fill:#552200;stroke:none;stroke-width:7.17962;stroke-dasharray:none"
       id="path9078-6-7-5-3-5-6-2-9-1-2-7-0-9-3-6-0-6-2-6-1-8-9-2-0-2-3"
       sodipodi:type="arc"
       sodipodi:cx="94.480705"
       sodipodi:cy="156.16537"
       sodipodi:rx="11.268972"
       sodipodi:ry="7.026504"
       sodipodi:start="0"
       sodipodi:end="6.2830422"
       sodipodi:arc-type="slice"
       d="m 105.74968,156.16537 a 11.268972,7.026504 0 0 1 -11.268572,7.02651 11.268972,7.026504 0 0 1 -11.269375,-7.026 11.268972,7.026504 0 0 1 11.267763,-7.02701 11.268972,7.026504 0 0 1 11.270184,7.0255 l -11.268975,0.001 z" />
    <path
       style="fill:#552200;stroke:none;stroke-width:7.17962;stroke-dasharray:none"
       id="path9078-6-7-5-3-5-6-2-9-1-2-7-0-9-3-6-0-6-2-6-1-8-9-2-0-2-3-7"
       sodipodi:type="arc"
       sodipodi:cx="105.74969"
       sodipodi:cy="163.19191"
       sodipodi:rx="11.268972"
       sodipodi:ry="7.026504"
       sodipodi:start="0"
       sodipodi:end="6.2830422"
       sodipodi:arc-type="slice"
       d="m 117.01866,163.19191 a 11.268972,7.026504 0 0 1 -11.26857,7.0265 11.268972,7.026504 0 0 1 -11.269375,-7.026 11.268972,7.026504 0 0 1 11.267765,-7.027 11.268972,7.026504 0 0 1 11.27018,7.02549 l -11.26897,0.001 z" />
    <path
       style="fill:#552200;stroke:none;stroke-width:7.17962;stroke-dasharray:none"
       id="path9078-6-7-5-3-5-6-2-9-1-2-7-0-9-3-6-0-6-2-6-1-8-9-2-0-2-3-7-5"
       sodipodi:type="arc"
       sodipodi:cx="117.01866"
       sodipodi:cy="156.16537"
       sodipodi:rx="11.268972"
       sodipodi:ry="7.026504"
       sodipodi:start="0"
       sodipodi:end="6.2830422"
       sodipodi:arc-type="slice"
       d="m 128.28763,156.16537 a 11.268972,7.026504 0 0 1 -11.26857,7.02651 11.268972,7.026504 0 0 1 -11.26937,-7.026 11.268972,7.026504 0 0 1 11.26776,-7.02701 11.268972,7.026504 0 0 1 11.27018,7.0255 l -11.26897,0.001 z" />
    <path
       style="fill:#552200;stroke:none;stroke-width:7.17962;stroke-dasharray:none"
       id="path9078-6-7-5-3-5-6-2-9-1-2-7-0-9-3-6-0-6-2-6-1-8-9-2-0-2-3-7-5-9"
       sodipodi:type="arc"
       sodipodi:cx="130.06737"
       sodipodi:cy="163.19191"
       sodipodi:rx="11.268972"
       sodipodi:ry="7.026504"
       sodipodi:start="0"
       sodipodi:end="6.2830422"
       sodipodi:arc-type="slice"
       d="m 141.33634,163.19191 a 11.268972,7.026504 0 0 1 -11.26857,7.0265 11.268972,7.026504 0 0 1 -11.26937,-7.026 11.268972,7.026504 0 0 1 11.26776,-7.027 11.268972,7.026504 0 0 1 11.27018,7.02549 l -11.26897,0.001 z" />
    <path
       style="fill:#552200;stroke:none;stroke-width:7.17962;stroke-dasharray:none"
       id="path9078-6-7-5-3-5-6-2-9-1-2-7-0-9-3-6-0-6-2-6-1-8-9-2-0-2-3-7-5-9-2"
       sodipodi:type="arc"
       sodipodi:cx="141.33632"
       sodipodi:cy="156.16537"
       sodipodi:rx="11.268972"
       sodipodi:ry="7.026504"
       sodipodi:start="0"
       sodipodi:end="6.2830422"
       sodipodi:arc-type="slice"
       d="m 152.60529,156.16537 a 11.268972,7.026504 0 0 1 -11.26857,7.02651 11.268972,7.026504 0 0 1 -11.26937,-7.026 11.268972,7.026504 0 0 1 11.26776,-7.02701 11.268972,7.026504 0 0 1 11.27018,7.0255 l -11.26897,0.001 z" />
    <path
       style="fill:#552200;stroke:none;stroke-width:7.17962;stroke-dasharray:none"
       id="path9078-6-7-5-3-5-6-2-9-1-2-7-0-9-3-6-0-6-2-6-1-8-9-2-0-2-3-7-5-9-2-2"
       sodipodi:type="arc"
       sodipodi:cx="152.6053"
       sodipodi:cy="163.19191"
       sodipodi:rx="11.268972"
       sodipodi:ry="7.026504"
       sodipodi:start="0"
       sodipodi:end="6.2830422"
       sodipodi:arc-type="slice"
       d="m 163.87427,163.19191 a 11.268972,7.026504 0 0 1 -11.26857,7.0265 11.268972,7.026504 0 0 1 -11.26937,-7.026 11.268972,7.026504 0 0 1 11.26776,-7.027 11.268972,7.026504 0 0 1 11.27018,7.02549 l -11.26897,0.001 z" />
    <path
       style="fill:#552200;stroke:none;stroke-width:7.17962;stroke-dasharray:none"
       id="path9078-6-7-5-3-5-6-2-9-1-2-7-0-9-3-6-0-6-2-6-1-8-9-2-0-2-3-7-5-9-2-2-8"
       sodipodi:type="arc"
       sodipodi:cx="162.09453"
       sodipodi:cy="156.16537"
       sodipodi:rx="11.268972"
       sodipodi:ry="7.026504"
       sodipodi:start="0"
       sodipodi:end="6.2830422"
       sodipodi:arc-type="slice"
       d="m 173.3635,156.16537 a 11.268972,7.026504 0 0 1 -11.26857,7.02651 11.268972,7.026504 0 0 1 -11.26937,-7.026 11.268972,7.026504 0 0 1 11.26776,-7.02701 11.268972,7.026504 0 0 1 11.27018,7.0255 l -11.26897,0.001 z" />
    <path
       style="fill:#552200;stroke:none;stroke-width:7.17962;stroke-dasharray:none"
       id="path9078-6-7-5-3-5-6-2-9-1-2-7-0-9-3-6-0-6-2-6-1-8-9-2-0-2-3-7-5-9-2-2-8-9"
       sodipodi:type="arc"
       sodipodi:cx="154.38503"
       sodipodi:cy="156.16537"
       sodipodi:rx="11.268972"
       sodipodi:ry="7.026504"
       sodipodi:start="0"
       sodipodi:end="6.2830422"
       sodipodi:arc-type="slice"
       d="m 165.654,156.16537 a 11.268972,7.026504 0 0 1 -11.26857,7.02651 11.268972,7.026504 0 0 1 -11.26938,-7.026 11.268972,7.026504 0 0 1 11.26777,-7.02701 11.268972,7.026504 0 0 1 11.27018,7.0255 l -11.26897,0.001 z" />
    <path
       style="fill:#552200;stroke:none;stroke-width:7.17962;stroke-dasharray:none"
       id="path9078-6-7-5-3-5-6-2-9-1-2-7-0-9-3-6-0-6-2-6-1-8-9-2-0-2-3-7-5-9-2-2-8-9-7"
       sodipodi:type="arc"
       sodipodi:cx="105.74969"
       sodipodi:cy="-156.16537"
       sodipodi:rx="11.268972"
       sodipodi:ry="7.026504"
       sodipodi:start="0"
       sodipodi:end="6.2830422"
       sodipodi:arc-type="slice"
       d="m 117.01866,-156.16537 a 11.268972,7.026504 0 0 1 -11.26857,7.0265 11.268972,7.026504 0 0 1 -11.269375,-7.026 11.268972,7.026504 0 0 1 11.267765,-7.02701 11.268972,7.026504 0 0 1 11.27018,7.0255 l -11.26897,0.001 z"
       transform="scale(1,-1)" />
    <path
       style="fill:#552200;stroke:none;stroke-width:7.17962;stroke-dasharray:none"
       id="path9078-6-7-5-3-5-6-2-9-1-2-7-0-9-3-6-0-6-2-6-1-8-9-2-0-2-3-7-5-9-2-2-8-9-7-3"
       sodipodi:type="arc"
       sodipodi:cx="128.28763"
       sodipodi:cy="-156.16437"
       sodipodi:rx="11.268972"
       sodipodi:ry="7.026504"
       sodipodi:start="0"
       sodipodi:end="6.2830422"
       sodipodi:arc-type="slice"
       d="m 139.5566,-156.16437 a 11.268972,7.026504 0 0 1 -11.26857,7.02651 11.268972,7.026504 0 0 1 -11.26937,-7.026 11.268972,7.026504 0 0 1 11.26776,-7.02701 11.268972,7.026504 0 0 1 11.27018,7.0255 l -11.26897,0.001 z"
       transform="scale(1,-1)" />
    <path
       style="fill:#552200;stroke:none;stroke-width:7.17962;stroke-dasharray:none"
       id="path9078-6-7-5-3-5-6-2-9-1-2-7-0-9-3-6-0-6-2-6-1-8-9-2-0-2-3-7-5-9-2-2-8-9-7-3-6"
       sodipodi:type="arc"
       sodipodi:cx="83.211746"
       sodipodi:cy="-156.16437"
       sodipodi:rx="11.268972"
       sodipodi:ry="7.026504"
       sodipodi:start="0"
       sodipodi:end="6.2830422"
       sodipodi:arc-type="slice"
       d="m 94.480719,-156.16437 a 11.268972,7.026504 0 0 1 -11.26857,7.02651 11.268972,7.026504 0 0 1 -11.269375,-7.026 11.268972,7.026504 0 0 1 11.267763,-7.02701 11.268972,7.026504 0 0 1 11.270181,7.0255 l -11.268972,0.001 z"
       transform="scale(1,-1)" />
    <path
       style="fill:#552200;stroke:none;stroke-width:7.17962;stroke-dasharray:none"
       id="path9078-6-7-5-3-5-6-2-9-1-2-7-0-9-3-6-0-6-2-6-1-8-9-2-0-2-3-7-5-9-2-2-8-9-7-3-6-1"
       sodipodi:type="arc"
       sodipodi:cx="58.894081"
       sodipodi:cy="-154.98988"
       sodipodi:rx="11.268972"
       sodipodi:ry="7.026504"
       sodipodi:start="0"
       sodipodi:end="6.2830422"
       sodipodi:arc-type="slice"
       d="m 70.163054,-154.98988 a 11.268972,7.026504 0 0 1 -11.26857,7.0265 11.268972,7.026504 0 0 1 -11.269375,-7.026 11.268972,7.026504 0 0 1 11.267763,-7.02701 11.268972,7.026504 0 0 1 11.270181,7.0255 l -11.268972,0.001 z"
       transform="scale(1,-1)" />
    <rect
       style="fill:#00ff00;stroke:#000000;stroke-width:7.17962;stroke-dasharray:none"
       id="rect11061"
       width="20.339941"
       height="37.405876"
       x="43.924835"
       y="109.42838" />
    <rect
       style="fill:#00ff00;stroke:#000000;stroke-width:7.17962;stroke-dasharray:none"
       id="rect11061-9"
       width="20.339941"
       height="37.405876"
       x="94.698334"
       y="109.42838" />
    <rect
       style="fill:#00ff00;stroke:#000000;stroke-width:7.17962;stroke-dasharray:none"
       id="rect11061-9-3"
       width="20.339941"
       height="37.405876"
       x="143.82523"
       y="109.42838" />
    <path
       style="fill:#ff6600;stroke:none;stroke-width:7.17962;stroke-dasharray:none"
       id="path11314"
       sodipodi:type="arc"
       sodipodi:cx="54.094803"
       sodipodi:cy="96.169479"
       sodipodi:rx="14.438596"
       sodipodi:ry="15.824774"
       sodipodi:start="0"
       sodipodi:end="6.2830422"
       sodipodi:arc-type="slice"
       d="M 68.533399,96.169479 A 14.438596,15.824774 0 0 1 54.095319,111.99425 14.438596,15.824774 0 0 1 39.656207,96.170612 14.438596,15.824774 0 0 1 54.093253,80.344706 14.438596,15.824774 0 0 1 68.533398,96.167215 l -14.438595,0.0023 z" />
    <path
       style="fill:#ff6600;stroke:none;stroke-width:7.17962;stroke-dasharray:none"
       id="path11314-9"
       sodipodi:type="arc"
       sodipodi:cx="104.86829"
       sodipodi:cy="96.169479"
       sodipodi:rx="14.438596"
       sodipodi:ry="15.824774"
       sodipodi:start="0"
       sodipodi:end="6.2830422"
       sodipodi:arc-type="slice"
       d="M 119.30689,96.169479 A 14.438596,15.824774 0 0 1 104.86881,111.99425 14.438596,15.824774 0 0 1 90.429698,96.170612 14.438596,15.824774 0 0 1 104.86674,80.344706 14.438596,15.824774 0 0 1 119.30689,96.167215 l -14.4386,0.0023 z" />
    <path
       style="fill:#ff6600;stroke:none;stroke-width:7.17962;stroke-dasharray:none"
       id="path11314-9-4"
       sodipodi:type="arc"
       sodipodi:cx="153.99521"
       sodipodi:cy="96.169479"
       sodipodi:rx="14.438596"
       sodipodi:ry="15.824774"
       sodipodi:start="0"
       sodipodi:end="6.2830422"
       sodipodi:arc-type="slice"
       d="M 168.4338,96.169479 A 14.438596,15.824774 0 0 1 153.99573,111.99425 14.438596,15.824774 0 0 1 139.55661,96.170612 14.438596,15.824774 0 0 1 153.99366,80.344706 14.438596,15.824774 0 0 1 168.4338,96.167215 l -14.43859,0.0023 z" />
  </g>
</svg>
